<svg width="100" height="100" viewBox="0 0 100 100" fill="none" xmlns="http://www.w3.org/2000/svg">
    <path d="M50 10C39.3913 10 29.2172 14.2143 21.7157 21.7157C14.2143 29.2172 10 39.3913 10 50C10 60.6087 14.2143 70.7828 21.7157 78.2843C29.2172 85.7857 39.3913 90 50 90C60.6087 90 70.7828 85.7857 78.2843 78.2843C85.7857 70.7828 90 60.6087 90 50C90 39.3913 85.7857 29.2172 78.2843 21.7157C70.7828 14.2143 60.6087 10 50 10ZM0 50C0 22.385 22.385 0 50 0C77.615 0 100 22.385 100 50C100 77.615 77.615 100 50 100C22.385 100 0 77.615 0 50ZM28.965 28.965C29.9026 28.0276 31.1742 27.5011 32.5 27.5011C33.8258 27.5011 35.0974 28.0276 36.035 28.965L50 42.93L63.965 28.965C64.4262 28.4874 64.978 28.1065 65.588 27.8445C66.198 27.5824 66.8541 27.4445 67.518 27.4387C68.1819 27.433 68.8403 27.5595 69.4548 27.8109C70.0693 28.0623 70.6275 28.4336 71.097 28.903C71.5664 29.3725 71.9377 29.9307 72.1891 30.5452C72.4405 31.1597 72.567 31.8181 72.5613 32.482C72.5555 33.1459 72.4175 33.802 72.1555 34.412C71.8935 35.022 71.5126 35.5738 71.035 36.035L57.07 50L71.035 63.965C71.9458 64.908 72.4498 66.171 72.4384 67.482C72.427 68.793 71.9011 70.0471 70.9741 70.9741C70.0471 71.9011 68.793 72.427 67.482 72.4384C66.171 72.4498 64.908 71.9458 63.965 71.035L50 57.07L36.035 71.035C35.092 71.9458 33.829 72.4498 32.518 72.4384C31.207 72.427 29.9529 71.9011 29.0259 70.9741C28.0989 70.0471 27.573 68.793 27.5616 67.482C27.5502 66.171 28.0542 64.908 28.965 63.965L42.93 50L28.965 36.035C28.0276 35.0974 27.5011 33.8258 27.5011 32.5C27.5011 31.1742 28.0276 29.9026 28.965 28.965Z" fill="#B3261E"/>
</svg>
