<svg width="49" height="50" viewBox="0 0 49 50" fill="none" xmlns="http://www.w3.org/2000/svg">
    <path fill-rule="evenodd" clip-rule="evenodd"
          d="M21.9235 49.8775L23.3248 46.7828L21.4029 44.1361C22.7774 42.1905 25.4664 42.5491 26.6698 44.1361L24.7827 46.7828L26.1206 49.8775L28.5792 49.4985L30.6596 37.827C34.109 41.4642 40.7871 40.4958 43.1004 44.2783C44.9254 43.1316 45.8205 42.3863 47.1265 40.8297C47.7701 39.7611 48.0638 39.1362 48.0769 37.827V5.48893C46.7472 4.62964 37.0794 2.72909 23.9907 0L23.9766 0.00285629C13.8039 2.06599 1.23827 4.61445 0.010532 5.49232V37.827C-0.0480753 39.0092 0.117034 39.6778 1.03948 40.8896C2.26504 42.3927 3.06821 43.17 4.96997 44.2968C6.60884 40.7036 13.6509 41.6719 17.3654 37.827L19.5396 49.4985L21.9235 49.8775ZM10.614 12.4534C10.614 10.6114 13.2392 8.84121 17.8465 7.82682C20.9381 7.14639 26.8089 7.14981 30.0568 7.83443C36.8243 9.26111 39.6322 12.2632 35.6654 14.8033L34.0764 15.4578V16.27C34.3067 17.038 34.3732 17.4814 34.447 18.2826C34.4743 20.4506 34.1883 22.532 33.8062 23.6866C33.9636 23.7589 34.1883 24.0541 34.1883 24.2263C34.0998 26.7911 33.7676 27.8114 32.7914 28.5466C32.1428 30.584 30.9096 32.264 30.6627 32.7333C30.1333 37.6951 27.1656 41.8346 24.1299 41.9279C22.9361 41.8346 21.5968 41.2807 20.2732 39.7806C18.9206 38.2478 18.2138 36.738 17.6573 34.2661C17.5877 33.9573 17.5596 33.4084 17.3654 32.6469C16.5772 31.5502 15.5804 29.7585 15.3121 28.5779C14.4259 28.165 13.7573 25.9715 13.9127 24.1887C14.0003 24.0149 14.1084 23.8382 14.2387 23.6573C13.8041 22.1077 13.4963 19.9455 13.6573 18.2268C13.6936 16.7848 14.0081 16.2237 14.0537 15.4962C12.6879 14.9869 10.614 14.1522 10.614 12.4534Z"
          fill="#00ABEB"/>
    <path d="M26.0928 14.0866C26.0928 15.8552 25.1881 17.3979 23.9907 17.3979C22.8028 17.3979 21.8595 15.8179 21.8595 14.0866C21.8595 12.502 22.2708 12.2632 22.2708 12.2632C23.2742 13.0922 23.2263 13.2141 23.9907 12.2632C24.7551 13.0239 24.564 13.4043 25.7106 12.2632C25.9017 12.4534 26.0928 12.971 26.0928 14.0866Z"
          fill="#00ABEB"/>
    <path fill-rule="evenodd" clip-rule="evenodd"
          d="M17.8465 7.82682C13.2392 8.84121 10.614 10.6114 10.614 12.4534C10.614 14.1522 12.6879 14.9869 14.0537 15.4962C14.0081 16.2237 13.6936 16.7848 13.6573 18.2268C13.4963 19.9455 13.8041 22.1077 14.2387 23.6573C14.1084 23.8382 14.0003 24.0149 13.9127 24.1887C13.7573 25.9715 14.4259 28.165 15.3121 28.5779C15.5804 29.7585 16.5772 31.5502 17.3654 32.6469C17.5596 33.4084 17.5877 33.9573 17.6573 34.2661C18.2138 36.738 18.9206 38.2478 20.2732 39.7806C21.5968 41.2807 22.9361 41.8346 24.1299 41.9279C27.1656 41.8346 30.1333 37.6951 30.6627 32.7333C30.9096 32.264 32.1428 30.584 32.7914 28.5466C33.7676 27.8114 34.0998 26.7911 34.1883 24.2263C34.1883 24.0541 33.9636 23.7589 33.8062 23.6866C34.1883 22.532 34.4743 20.4506 34.447 18.2826C34.3732 17.4814 34.3067 17.038 34.0764 16.27V15.4578L35.6654 14.8033C39.6322 12.2632 36.8243 9.26111 30.0568 7.83443C26.8089 7.14981 20.9381 7.14639 17.8465 7.82682ZM23.9907 17.3979C25.1881 17.3979 26.0928 15.8552 26.0928 14.0866C26.0928 12.971 25.9017 12.4534 25.7106 12.2632C24.564 13.4043 24.7551 13.0239 23.9907 12.2632C23.2263 13.2141 23.2742 13.0922 22.2708 12.2632C22.2708 12.2632 21.8595 12.502 21.8595 14.0866C21.8595 15.8179 22.8028 17.3979 23.9907 17.3979Z"
          fill="#232222"/>
    <path d="M19.5396 49.4985L17.3654 37.827C13.6509 41.6719 6.60884 40.7036 4.96997 44.2968C10.4143 47.2922 13.6545 48.2335 19.5396 49.4985Z"
          fill="#232222"/>
    <path d="M23.3248 46.7828L21.9235 49.8775C23.5632 50.0375 24.4804 50.0441 26.1206 49.8775L24.7827 46.7828L26.6698 44.1361C25.4664 42.5491 22.7774 42.1905 21.4029 44.1361L23.3248 46.7828Z"
          fill="#232222"/>
    <path d="M30.6596 37.827L28.5792 49.4985C34.8166 48.3127 37.917 47.0496 43.1004 44.2783C40.7871 40.4958 34.109 41.4642 30.6596 37.827Z"
          fill="#232222"/>
</svg>

